# xmcd CD database file
#
# Track frame offsets:
#	150
#	16287
#	39588
#	52319
#	76283
#	94352
#	111464
#	126514
#	142327
#	156192
#	169434
#	191466
#	211924
#	227961
#	248876
#	267126
#	277851
#	295676
#	311908
#	329328
#
# Disc length: 4728 seconds
#
# Revision: 0
# Processed by: cddbd v1.5.2PL0 Copyright (c) Steve Scherf et al.
# Submitted via: CDex 1.51
#
DISCID=38127614
DTITLE=Ella Fitzgerald - Forever Ella
DYEAR=2007
DGENRE=Jazz
TTITLE0=Ev'ry Time We Say Goodbye
TTITLE1=Cry Me a River 
TTITLE2=Manhattan
TTITLE3=The Best Is Yet to Come 
TTITLE4=I Get a Kick Out of You
TTITLE5=Cheek to Cheek
TTITLE6=Don't Fence Me In
TTITLE7=Get Happy
TTITLE8=Night and Day
TTITLE9=Let's Face the Music and Dance
TTITLE10=Summertime
TTITLE11=Someone to Watch Over Me
TTITLE12=Let's Do It (Let's Fall in Love)
TTITLE13=They Can't Take That Away from Me
TTITLE14=Let's Fall in Love
TTITLE15=You Do Something to Me
TTITLE16=One for My Baby
TTITLE17=A Fine Romance
TTITLE18=Wait 'Till You See Him [de Phazz Remix]
TTITLE19=Angel Eyes [Layo and Bushwacka Mix]
EXTD=YEAR: 2007
EXTT0=
EXTT1=
EXTT2=
EXTT3=
EXTT4=
EXTT5=
EXTT6=
EXTT7=
EXTT8=
EXTT9=
EXTT10=
EXTT11=
EXTT12=
EXTT13=
EXTT14=
EXTT15=
EXTT16=
EXTT17=
EXTT18=
EXTT19=
PLAYORDER=
